<svg xmlns="http://www.w3.org/2000/svg" version="1.1" viewBox="0 -4 1088 1088" crxemulator="">
  <style>
    path { fill: #000000; }
    @media (prefers-color-scheme: dark) {
      path { fill: #FFFFFF; }
    }
  </style>
  <g>
    <path d="M 687.083 75.9069 C 720.67 75.4997 751.864 80.0309 783.382 91.7846 C 946.128 152.476 1005.54 349.583 894.543 486.654 C 932.567 519.644 965.726 567.28 982.081 614.755 C 1007.75 690.342 1002.72 772.987 968.063 844.9 C 933.464 915.751 868.286 970.66 794.107 996.631 C 744.961 1013.84 714.508 1014.34 664.593 1014.92 C 602.263 1015.64 549.197 1011.02 492.089 982.142 C 420.954 946.171 374.423 892.317 348.551 817.245 C 340.734 793.57 337.127 773.581 334.653 748.955 C 328.931 692.01 377.499 645.341 434.934 653.986 C 449.737 656.099 463.689 662.188 475.303 671.606 C 520.351 708.116 495.698 748.73 528.229 790.894 C 548.317 816.93 576.299 835.429 609.265 840.412 C 624.317 842.687 644.282 842.027 659.362 842.293 C 703.227 842.868 733.316 843.635 769.986 816.452 C 866.786 744.693 825.58 593.042 704.574 585.028 C 687.845 584.413 670.708 585.704 654.084 583.469 C 632.577 580.577 609.141 567.95 596.025 550.491 C 582.623 532.606 576.806 510.161 579.833 488.018 C 587.223 437.345 629.026 409.263 678.271 412.805 C 725.501 416.203 768.934 389.937 775.969 340.656 C 779.017 320.08 773.628 299.145 761.024 282.598 C 743.659 259.539 715.75 247.828 687.857 243.885 C 694.725 228.915 701.95 219.714 707.506 203.277 C 717.894 172.154 716.549 138.307 703.724 108.106 C 699.038 97.23 692.433 86.7653 687.083 75.9069 z"/>
    <path d="M 376.582 413.435 C 394.663 412.084 430.642 411.256 447.291 414.663 C 543.684 434.393 538.464 572.313 439.691 584.509 C 417.285 587.276 394.3 583.61 372.288 587.014 C 354.481 589.863 337.551 596.709 322.769 607.038 C 258.558 651.931 270.194 721.562 270.528 790.09 L 270.784 889.497 C 271.007 938.487 274.047 971.46 228.451 1002.88 C 165.926 1036.48 100.368 996.994 97.184 926.642 C 96.4874 911.247 97.0061 895.485 97 880.045 L 96.9697 794.117 C 96.9473 678.599 90.104 597.773 175.859 503.085 C 227.785 445.75 300.224 417.122 376.582 413.435 z"/>
    <path d="M 554.552 75.4716 C 581.532 75.8659 603.81 80.755 623.554 100.885 C 639.564 117.381 648.333 139.582 647.917 162.566 C 647.335 204.716 618.102 238.697 577.274 245.997 C 557.39 249.552 517.185 248.043 494.861 248.004 L 387.46 248.008 C 366.918 248.026 341.39 246.285 322.879 255.591 C 301.595 266.292 281.945 284.63 275.371 308.08 C 269.612 328.62 273.301 350.54 257.388 366.882 C 240.195 384.538 215.767 392.482 195.434 405.832 C 174.694 419.098 158.068 432.705 140.615 449.623 C 121.975 468.746 112.148 480.715 96.8328 502.801 C 97.3223 463.356 96.7019 423.737 96.8962 384.283 C 97.0245 358.225 96.1419 331.98 98.7447 306.037 C 104.185 250.098 128.357 197.635 167.342 157.152 C 243.796 77.8083 314.423 75.7927 416.877 75.916 C 462.769 76.1551 508.663 76.007 554.552 75.4716 z"/>
  </g>
</svg>
